<?xml version="1.0" standalone="no"?>
<!DOCTYPE svg PUBLIC "-//W3C//DTD SVG 20010904//EN"
 "http://www.w3.org/TR/2001/REC-SVG-20010904/DTD/svg10.dtd">
<svg version="1.0" xmlns="http://www.w3.org/2000/svg"
 width="500.000000pt" height="500.000000pt" viewBox="0 0 500.000000 500.000000"
 preserveAspectRatio="xMidYMid meet">

<g transform="translate(0.000000,500.000000) scale(0.100000,-0.100000)"
fill="#000000" stroke="none">
<path d="M0 2500 l0 -2500 2500 0 2500 0 0 2500 0 2500 -2500 0 -2500 0 0
-2500z m4500 0 l0 -2000 -2000 0 -2000 0 0 2000 0 2000 2000 0 2000 0 0 -2000z"/>
<path d="M620 2500 l0 -1880 1880 0 1880 0 0 1880 0 1880 -1880 0 -1880 0 0
-1880z m2380 960 c267 -161 489 -296 493 -300 5 -5 4 -33 -3 -64 -6 -30 -13
-115 -15 -188 -2 -73 -8 -212 -14 -308 -20 -297 9 -430 91 -430 l29 0 -3 -156
-3 -155 -528 -320 c-290 -175 -529 -319 -532 -319 -3 0 -5 146 -5 325 0 307 1
325 18 325 21 0 63 42 85 85 26 52 50 145 67 264 l16 115 35 13 34 13 -37 -4
-38 -5 0 85 c0 93 -14 167 -36 185 -16 13 -19 33 -4 24 6 -4 27 -8 46 -10 67
-6 108 -67 107 -160 -1 -70 -17 -111 -72 -185 -22 -30 -39 -56 -36 -58 9 -10
57 30 90 76 111 151 67 340 -86 366 l-37 6 31 57 c24 46 31 72 35 135 5 77 5
77 -30 112 -41 41 -91 53 -157 38 -37 -8 -47 -8 -54 4 -13 23 -37 17 -37 -9 0
-13 -10 -32 -21 -43 l-22 -19 6 150 c5 138 7 151 27 167 25 20 93 24 134 8 47
-17 112 -88 142 -153 27 -57 29 -71 29 -182 0 -109 -3 -126 -28 -188 -29 -69
-29 -94 -1 -65 33 32 66 150 72 249 4 81 1 109 -17 170 -19 61 -31 80 -79 128
-74 74 -161 100 -236 71 -16 -6 -27 -6 -31 0 -10 17 -35 11 -35 -8 0 -10 -12
-29 -26 -43 -36 -34 -77 -106 -70 -125 3 -8 2 -13 -2 -10 -4 2 -7 -33 -7 -79
0 -46 3 -78 7 -72 4 7 8 39 8 72 0 69 31 145 75 185 l28 25 -16 -26 c-23 -34
-33 -115 -18 -133 8 -9 11 -47 10 -104 -1 -73 -5 -91 -19 -100 -16 -10 -21 -5
-37 33 -11 27 -20 39 -25 32 -12 -18 -9 -29 4 -21 7 5 9 2 6 -8 -4 -8 4 -33
18 -54 25 -42 30 -59 13 -49 -7 5 -8 -5 -3 -30 5 -28 2 -43 -13 -64 -19 -24
-53 -160 -53 -208 0 -19 -2 -20 -42 -6 l-43 14 6 377 c3 207 6 378 7 380 1 1
43 2 92 2 53 0 90 4 90 10 0 11 -114 15 -285 10 -109 -2 -127 -7 -101 -25 12
-9 28 -10 54 -4 20 5 53 9 72 9 l36 0 12 -78 c7 -42 11 -147 10 -232 -1 -107
-3 -135 -7 -90 -4 47 -8 9 -13 -135 -5 -151 -4 -201 5 -207 7 -5 2 -8 -14 -8
l-25 0 -13 148 c-21 247 -51 342 -111 342 -36 0 -72 -32 -63 -56 4 -11 2 -15
-4 -11 -13 8 -24 -18 -17 -38 4 -10 15 3 32 38 15 28 35 53 44 55 45 8 76
-105 84 -308 4 -89 11 -148 18 -152 6 -5 0 -8 -14 -9 -14 0 -20 -3 -13 -5 7
-3 9 -18 6 -41 -5 -26 -3 -34 6 -29 6 4 11 4 10 -1 -1 -4 -1 -49 0 -100 1 -69
5 -95 17 -107 14 -15 13 -16 -9 -16 -24 0 -25 2 -31 108 -12 181 -26 272 -55
336 -15 35 -25 44 -51 50 -24 4 -38 2 -52 -10 -21 -19 -22 -14 -8 38 6 20 17
39 25 42 20 7 19 26 -1 26 -12 0 -14 7 -10 28 3 15 1 34 -5 42 -8 12 -9 9 -4
-13 4 -21 3 -27 -6 -21 -9 5 -10 -1 -5 -20 4 -18 3 -25 -4 -21 -5 3 -10 -1
-10 -10 0 -11 -5 -15 -14 -12 -8 3 -31 9 -50 12 -41 8 -41 9 -51 165 -9 129
-30 243 -53 291 -20 39 -20 40 -1 23 21 -19 -11 -37 614 344 99 60 182 109
185 108 3 -2 223 -135 490 -296z m-1350 -154 c0 -2 -8 -10 -17 -17 -16 -13
-17 -12 -4 4 13 16 21 21 21 13z m1920 -90 c-24 -72 -25 -85 -3 -101 15 -11
16 -29 4 -229 -7 -119 -13 -256 -13 -304 0 -124 -18 -71 -25 77 -5 87 -8 109
-16 90 -14 -38 -14 -240 1 -266 14 -25 46 -30 59 -10 4 6 11 68 14 137 l5 125
2 -123 c1 -68 -2 -131 -8 -141 -5 -10 -10 -79 -11 -155 -1 -124 -3 -136 -19
-136 -21 0 -60 45 -60 69 0 13 -2 13 -9 2 -15 -23 -5 373 14 529 9 80 15 171
13 203 -2 31 -1 57 4 57 4 0 8 19 8 43 0 46 53 239 58 210 1 -10 -6 -45 -18
-77z m-1868 32 c-4 -16 -2 -19 8 -13 8 5 11 4 6 -3 -3 -6 -2 -39 4 -74 5 -35
12 -121 16 -192 5 -115 4 -128 -10 -123 -9 4 -16 2 -16 -3 0 -6 7 -10 15 -10
12 0 15 -15 15 -79 0 -126 10 -199 29 -204 9 -3 0 -5 -20 -6 -70 -2 -98 -61
-28 -61 24 0 30 4 25 15 -3 9 0 15 8 15 8 0 16 -7 20 -15 3 -8 13 -15 21 -15
11 0 15 -6 11 -17 -3 -10 -12 -56 -21 -102 -11 -63 -12 -86 -4 -92 6 -4 -17
-10 -52 -14 -79 -9 -103 -20 -96 -46 6 -24 3 -24 -49 1 -27 14 -69 52 -118
110 -70 83 -89 114 -44 73 17 -15 18 -15 18 5 0 18 6 22 34 22 25 0 36 5 41
18 3 11 16 24 28 29 33 15 105 113 133 180 30 74 32 179 5 238 -39 83 -112
122 -210 111 -31 -3 -51 -3 -44 2 6 4 13 32 15 61 3 53 4 55 52 84 47 29 49
30 62 12 12 -16 14 -17 14 -2 0 22 21 67 29 62 4 -2 29 9 56 25 28 17 51 30
52 30 0 0 -1 -10 -5 -22z m2173 -28 c31 -61 36 -120 28 -340 l-8 -215 -5 260
c-5 254 -6 261 -29 299 -14 22 -19 36 -13 32 7 -4 19 -20 27 -36z m-147 -1
c-29 -16 -67 -91 -88 -170 -10 -41 -19 -65 -19 -54 -2 77 75 236 113 235 6 0
3 -5 -6 -11z m-2493 -188 c9 -16 -9 -20 -23 -5 -10 12 -10 14 2 14 8 0 17 -4
21 -9z m145 -12 c0 -6 -4 -7 -10 -4 -5 3 -10 11 -10 16 0 6 5 7 10 4 6 -3 10
-11 10 -16z m-379 -18 c13 -11 21 -22 17 -26 -4 -4 -21 4 -38 19 -36 30 -15
37 21 7z m1660 -20 c58 -58 31 -205 -53 -292 -36 -37 -39 -44 -26 -53 15 -9
15 -13 -2 -47 -14 -26 -31 -41 -61 -53 -48 -19 -46 -34 2 -17 18 6 34 9 37 7
10 -11 -19 -40 -52 -51 l-36 -13 0 62 c0 60 1 62 27 61 14 0 28 6 30 13 3 8
-6 12 -27 12 l-31 0 5 128 c2 70 8 155 12 190 8 73 17 80 97 81 41 1 53 -4 78
-28z m-1358 12 c-7 -2 -21 -2 -30 0 -10 3 -4 5 12 5 17 0 24 -2 18 -5z m-343
-19 c0 -2 -9 -4 -20 -4 -11 0 -20 4 -20 9 0 5 9 7 20 4 11 -3 20 -7 20 -9z
m247 10 c-3 -3 -12 -4 -19 -1 -8 3 -5 6 6 6 11 1 17 -2 13 -5z m313 -4 c0 -5
-4 -10 -9 -10 -6 0 -13 5 -16 10 -3 6 1 10 9 10 9 0 16 -4 16 -10z m-397 -7
c-13 -2 -33 -2 -45 0 -13 2 -3 4 22 4 25 0 35 -2 23 -4z m464 -19 c32 -24 73
-79 73 -96 0 -5 -28 -8 -62 -8 l-63 0 3 65 c2 36 6 65 9 65 4 0 22 -12 40 -26z
m-416 -35 c-5 -26 -9 -34 -10 -19 -1 27 9 73 15 67 2 -2 0 -23 -5 -48z m2446
4 c-3 -10 -5 -2 -5 17 0 19 2 27 5 18 2 -10 2 -26 0 -35z m-2133 -22 c-6 -42
-17 -60 -36 -61 -5 0 -8 26 -8 59 0 57 1 58 25 53 25 -4 26 -7 19 -51z m966
38 c0 -11 -5 -30 -11 -41 -8 -14 -8 -23 0 -31 6 -6 11 -22 11 -35 0 -17 -5
-23 -17 -20 -14 2 -19 15 -21 61 -3 55 8 87 29 87 5 0 9 -9 9 -21z m-923 -36
c-3 -10 -5 -2 -5 17 0 19 2 27 5 18 2 -10 2 -26 0 -35z m-468 5 c15 -43 8 -45
-12 -3 -9 19 -13 35 -8 35 5 0 14 -14 20 -32z m288 10 c-3 -8 -6 -5 -6 6 -1
11 2 17 5 13 3 -3 4 -12 1 -19z m2640 -50 c-2 -13 -4 -3 -4 22 0 25 2 35 4 23
2 -13 2 -33 0 -45z m-1599 12 c-10 -18 -10 -24 0 -27 6 -3 12 -9 12 -15 0 -17
-27 10 -33 32 -3 11 -1 17 4 14 5 -3 12 2 15 11 4 9 8 14 11 11 2 -2 -2 -14
-9 -26z m1462 6 c0 -14 -7 -98 -15 -188 -8 -90 -16 -190 -18 -223 -3 -52 -3
-50 -5 20 -1 44 5 149 13 234 11 114 12 157 4 167 -9 11 -8 14 5 14 10 0 16
-9 16 -24z m-2333 -28 c-3 -8 -6 -5 -6 6 -1 11 2 17 5 13 3 -3 4 -12 1 -19z
m2090 -45 c-2 -16 -4 -5 -4 22 0 28 2 40 4 28 2 -13 2 -35 0 -50z m-2517 12
c0 -5 -5 -3 -10 5 -5 8 -10 20 -10 25 0 6 5 3 10 -5 5 -8 10 -19 10 -25z m88
-132 c16 -12 16 -13 0 -7 -16 5 -18 -2 -18 -67 0 -41 9 -120 20 -177 11 -56
22 -142 25 -190 l4 -87 -14 99 c-8 55 -21 136 -30 181 -10 55 -14 133 -13 241
1 87 4 128 5 90 3 -51 9 -73 21 -83z m1202 67 c0 -30 7 -66 15 -80 13 -24 14
-21 15 42 0 56 3 66 15 62 11 -5 15 -24 17 -78 l1 -71 7 55 7 55 1 -62 c2 -76
-12 -82 -63 -28 -37 37 -57 30 -31 -10 9 -13 16 -45 16 -70 0 -38 -3 -45 -19
-45 -11 0 -23 -4 -26 -10 -3 -5 -2 -10 3 -10 6 0 20 -11 33 -25 30 -31 59 -33
60 -2 l2 22 4 -22 c3 -15 -7 -37 -29 -64 -30 -37 -33 -47 -33 -106 0 -58 3
-67 25 -82 23 -15 24 -15 15 4 -17 39 -17 111 -1 144 9 17 18 31 19 31 1 0 0
-25 -1 -55 -4 -50 -2 -55 17 -55 19 0 21 6 21 75 0 60 3 75 15 75 24 0 21
-126 -4 -165 -38 -61 -58 -75 -90 -64 -72 25 -102 201 -66 379 10 47 19 110
21 140 2 30 7 66 10 79 9 40 24 5 24 -59z m-869 -20 c-6 -65 -9 -73 -10 -35
-1 49 9 129 15 122 2 -1 -1 -41 -5 -87z m159 46 c0 -76 -35 -167 -87 -229 -27
-30 -52 -56 -57 -56 -5 -1 -6 20 -2 45 3 26 6 100 6 165 l0 119 70 0 70 0 0
-44z m-383 2 c-3 -7 -5 -2 -5 12 0 14 2 19 5 13 2 -7 2 -19 0 -25z m176 -40
c-5 -40 -8 -124 -8 -185 0 -62 -3 -113 -7 -113 -10 0 -11 354 -1 363 18 19 22
0 16 -65z m395 38 c2 -2 -6 -52 -18 -112 -16 -86 -18 -109 -8 -116 9 -5 6 -8
-8 -8 -26 0 -31 19 -40 165 l-7 107 38 -17 c22 -8 41 -17 43 -19z m2099 2 c-3
-7 -5 -2 -5 12 0 14 2 19 5 13 2 -7 2 -19 0 -25z m-2550 -10 c-3 -8 -6 -5 -6
6 -1 11 2 17 5 13 3 -3 4 -12 1 -19z m990 -10 c-3 -8 -6 -5 -6 6 -1 11 2 17 5
13 3 -3 4 -12 1 -19z m-1290 -10 c-3 -8 -6 -5 -6 6 -1 11 2 17 5 13 3 -3 4
-12 1 -19z m2838 -225 c0 -208 2 -232 20 -268 18 -37 24 -40 70 -46 l50 -6
-55 1 c-54 1 -55 2 -75 41 -15 33 -20 67 -23 187 -4 118 4 318 11 318 1 0 2
-102 2 -227z m-2632 170 c9 -24 14 -43 11 -43 -6 0 -34 65 -34 81 0 17 4 10
23 -38z m-193 22 c0 -8 -2 -15 -4 -15 -2 0 -6 7 -10 15 -3 8 -1 15 4 15 6 0
10 -7 10 -15z m845 -15 c9 -10 25 -49 35 -85 l17 -65 -58 0 c-33 0 -59 -4 -59
-10 0 -6 27 -10 60 -10 61 0 76 -11 40 -30 -25 -13 -26 -30 -1 -37 22 -6 31
-46 31 -140 0 -39 5 -63 13 -67 6 -4 -3 -4 -22 -1 -18 3 -69 5 -112 5 -69 0
-79 2 -78 18 0 10 3 12 6 5 2 -7 10 -13 17 -13 10 0 15 32 19 118 3 64 7 126
9 137 2 12 -2 19 -9 18 -17 -4 -16 1 7 71 21 63 45 106 59 106 4 0 16 -9 26
-20z m-587 -92 c31 -33 19 -38 -15 -6 -17 16 -23 31 -21 62 1 41 1 41 5 6 3
-20 16 -47 31 -62z m-251 60 c-3 -8 -6 -5 -6 6 -1 11 2 17 5 13 3 -3 4 -12 1
-19z m2634 -160 c-31 -108 -71 -222 -76 -216 -1 2 15 55 35 118 21 63 44 144
52 180 7 36 14 55 16 43 2 -12 -10 -68 -27 -125z m-1135 77 c-3 -8 -1 -15 4
-15 6 0 10 -18 10 -40 0 -36 -2 -40 -25 -40 -14 0 -25 -4 -25 -10 0 -5 14 -10
30 -10 l30 0 0 -75 0 -75 -49 -54 c-27 -30 -55 -64 -61 -75 -12 -23 -26 -26
-64 -11 l-26 9 26 28 c39 42 60 90 89 202 26 102 53 181 62 181 3 0 3 -7 -1
-15z m-188 -38 c2 -21 -1 -37 -7 -37 -6 0 -11 11 -11 24 0 13 -3 32 -7 42 -4
12 -2 15 8 12 8 -2 15 -21 17 -41z m-1091 -34 c-2 -16 -4 -5 -4 22 0 28 2 40
4 28 2 -13 2 -35 0 -50z m1110 15 c-2 -13 -4 -5 -4 17 -1 22 1 32 4 23 2 -10
2 -28 0 -40z m-313 -49 c1 -27 5 -35 24 -37 19 -3 27 6 24 29 -1 4 16 6 37 5
l38 -1 6 -75 c12 -137 40 -193 107 -210 60 -15 114 -37 118 -49 2 -6 -4 -35
-14 -63 -23 -69 -23 -167 -1 -202 15 -22 17 -62 17 -345 l0 -319 -530 320
-530 321 0 221 1 221 37 -41 c20 -22 47 -48 59 -58 33 -27 97 -38 146 -25 37
10 40 12 24 24 -16 11 -16 13 -1 19 8 3 25 6 36 6 20 0 21 -4 15 -67 -24 -257
-19 -316 25 -321 22 -3 26 1 31 35 4 21 7 90 8 153 0 63 4 140 9 170 l7 55 2
-62 c1 -80 18 -82 27 -3 l7 60 78 0 c56 0 79 -4 79 -12 2 -92 21 -302 30 -318
15 -28 70 -28 70 0 0 11 -6 20 -14 20 -8 0 -17 12 -20 28 -11 49 -27 265 -20
271 3 3 16 -6 28 -21 17 -23 30 -28 64 -28 57 0 57 25 0 41 -24 6 -38 13 -32
16 7 2 8 23 3 61 -17 136 -20 224 -7 220 6 -2 12 -20 12 -39z m-280 4 c-3 -16
-9 -64 -13 -108 l-8 -80 -2 70 c0 39 4 87 10 108 12 43 21 50 13 10z m-507
-45 c-3 -7 -5 -2 -5 12 0 14 2 19 5 13 2 -7 2 -19 0 -25z m1178 -20 c-14 -79
-24 -87 -24 -20 -1 50 2 62 15 62 13 0 15 -7 9 -42z m-1108 16 c-3 -3 -12 -4
-19 -1 -8 3 -5 6 6 6 11 1 17 -2 13 -5z m-60 -204 l0 -55 -7 60 c-4 33 -8 85
-7 115 l0 55 7 -60 c4 -33 8 -85 7 -115z m450 43 c-3 -10 -5 -2 -5 17 0 19 2
27 5 18 2 -10 2 -26 0 -35z m2000 -10 c-3 -10 -5 -2 -5 17 0 19 2 27 5 18 2
-10 2 -26 0 -35z m-340 15 c-3 -8 -6 -5 -6 6 -1 11 2 17 5 13 3 -3 4 -12 1
-19z m-847 -73 c-6 -7 -25 -18 -41 -24 -34 -12 -33 -9 15 54 l31 39 3 -27 c2
-16 -2 -34 -8 -42z m-823 -47 c-2 -18 -4 -6 -4 27 0 33 2 48 4 33 2 -15 2 -42
0 -60z m2386 65 c-7 -2 -19 -2 -25 0 -7 3 -2 5 12 5 14 0 19 -2 13 -5z m81 -2
c3 -4 -6 -6 -19 -3 -14 2 -25 6 -25 8 0 8 39 4 44 -5z m-406 -76 c12 -5 22
-17 22 -25 0 -9 -3 -11 -8 -4 -4 6 -15 13 -25 17 -18 7 -37 46 -36 75 0 9 5 1
12 -18 7 -19 22 -39 35 -45z m269 69 c-3 -3 -12 -4 -19 -1 -8 3 -5 6 6 6 11 1
17 -2 13 -5z m-1521 -131 c-16 -78 -69 -203 -86 -203 -37 0 -38 141 -1 226 19
44 27 52 59 60 20 5 38 6 40 2 2 -4 -4 -43 -12 -85z m-819 -40 c-2 -16 -4 -3
-4 27 0 30 2 43 4 28 2 -16 2 -40 0 -55z"/>
<path d="M3129 3314 c-28 -14 -74 -106 -65 -130 3 -8 1 -14 -5 -14 -6 0 -9 -8
-8 -17 1 -10 -1 -25 -4 -33 -12 -33 -36 -117 -42 -150 -3 -19 -15 -56 -27 -82
-18 -40 -26 -47 -57 -53 -20 -4 -46 -13 -59 -21 -19 -12 -21 -18 -11 -30 17
-20 46 -17 52 6 3 11 11 20 19 20 10 0 13 -30 13 -144 0 -82 -4 -142 -9 -139
-5 3 -7 -6 -4 -20 3 -15 2 -25 -1 -22 -6 3 -166 -566 -166 -590 0 -5 9 -10 20
-10 16 0 22 11 33 60 32 142 141 582 151 605 8 20 9 16 4 -22 -6 -51 4 -121
16 -114 4 3 5 -9 3 -26 -3 -20 -1 -29 6 -24 6 4 8 -2 5 -14 -8 -32 44 -127 85
-155 40 -27 116 -34 154 -14 13 7 24 7 30 1 19 -19 -154 -122 -206 -122 -29 0
-36 -4 -36 -20 0 -11 5 -20 10 -20 20 0 275 127 288 143 8 9 11 21 7 28 -4 6
-55 33 -112 60 -58 27 -117 58 -133 69 -30 21 -66 26 -72 10 -1 -5 -4 15 -5
45 -1 30 2 57 8 60 13 9 11 62 -3 88 -13 22 -19 247 -8 247 4 0 10 -4 16 -10
6 -6 21 11 42 50 34 61 34 86 1 77 -14 -4 -19 0 -20 16 -1 17 -3 15 -9 -8 -4
-16 -8 -23 -9 -15 -1 10 -6 7 -15 -9 -12 -21 -14 -22 -20 -5 -4 10 -4 15 0 11
4 -4 18 10 32 30 52 76 116 110 182 97 37 -8 38 -9 42 -95 l4 -67 -77 5 c-51
4 -78 2 -83 -6 -5 -8 17 -11 77 -11 l84 0 5 -144 c6 -161 18 -201 58 -201 16
0 26 6 28 18 2 10 -3 17 -12 17 -8 0 -17 8 -20 18 -6 21 -26 212 -26 254 0 28
2 30 27 23 37 -9 40 -16 48 -112 12 -142 -22 -339 -75 -430 -15 -25 -16 -33
-5 -37 27 -10 68 72 96 191 18 75 20 110 17 228 -6 161 -26 230 -85 296 -29
32 -36 49 -39 91 -7 86 -34 211 -52 242 -22 37 -51 48 -83 30z m61 -36 c10
-17 24 -63 30 -102 6 -39 15 -92 19 -117 l8 -47 -61 2 c-46 1 -72 -5 -105 -22
-24 -13 -46 -20 -49 -17 -3 3 -1 5 5 5 6 0 13 23 15 52 4 37 12 57 27 69 25
20 27 29 6 29 -19 0 -19 14 0 77 17 56 49 103 71 103 8 0 23 -14 34 -32z m131
-409 l19 -49 -27 6 c-16 4 -29 7 -29 8 -1 1 -5 30 -9 66 -6 63 -6 64 11 41 9
-13 25 -45 35 -72z m-338 -72 c-3 -20 -10 -37 -15 -37 -5 0 -6 10 -3 23 4 12
9 30 12 40 8 31 13 13 6 -26z m2 -187 c-4 -17 -9 -29 -12 -26 -3 2 -2 19 2 36
4 17 9 29 12 26 3 -2 2 -19 -2 -36z m22 -162 c-3 -8 -6 -5 -6 6 -1 11 2 17 5
13 3 -3 4 -12 1 -19z m181 -222 c27 -14 31 -20 21 -32 -29 -35 -123 3 -158 66
-11 21 -21 41 -21 45 0 4 28 -9 63 -28 34 -19 77 -42 95 -51z"/>
<path d="M2273 3045 c0 -22 2 -30 4 -17 2 12 2 30 0 40 -3 9 -5 -1 -4 -23z"/>
<path d="M3392 2789 c2 -6 8 -10 13 -10 5 0 11 4 13 10 2 6 -4 11 -13 11 -9 0
-15 -5 -13 -11z"/>
<path d="M3016 2693 c-9 -59 -7 -151 4 -158 6 -4 10 30 10 94 0 56 -2 101 -4
101 -2 0 -6 -17 -10 -37z"/>
<path d="M2705 2500 c-8 -12 20 -24 35 -15 6 3 8 11 5 16 -8 12 -32 12 -40 -1z"/>
<path d="M1541 3130 c-1 -14 -7 -36 -14 -50 -8 -14 -16 -36 -19 -48 -5 -18 -2
-22 18 -22 20 0 24 5 24 30 0 19 9 40 24 55 25 25 24 35 -5 35 -9 0 -20 6 -22
13 -3 6 -6 1 -6 -13z"/>
<path d="M2322 2484 c2 -11 11 -20 22 -22 13 -3 17 1 14 14 -2 11 -11 20 -22
22 -13 3 -17 -1 -14 -14z"/>
<path d="M2502 2225 c0 -16 2 -22 5 -12 2 9 2 23 0 30 -3 6 -5 -1 -5 -18z"/>
</g>
</svg>
